<?xml version="1.0" encoding="UTF-8" standalone="no"?>
<svg
   aria-hidden="true"
   role="img"
   class="iconify iconify--logos"
   width="28.142744"
   height="20.600193"
   preserveAspectRatio="xMidYMid"
   viewBox="0 0 225.98942 165.4453"
   version="1.1"
   id="svg6"
   sodipodi:docname="vite.svg"
   inkscape:version="1.3.2 (091e20e, 2023-11-25, custom)"
   xml:space="preserve"
   xmlns:inkscape="http://www.inkscape.org/namespaces/inkscape"
   xmlns:sodipodi="http://sodipodi.sourceforge.net/DTD/sodipodi-0.dtd"
   xmlns="http://www.w3.org/2000/svg"
   xmlns:svg="http://www.w3.org/2000/svg"><sodipodi:namedview
     id="namedview6"
     pagecolor="#ffffff"
     bordercolor="#000000"
     borderopacity="0.25"
     inkscape:showpageshadow="2"
     inkscape:pageopacity="0.0"
     inkscape:pagecheckerboard="0"
     inkscape:deskcolor="#d1d1d1"
     inkscape:zoom="81.445927"
     inkscape:cx="10.884522"
     inkscape:cy="7.9377818"
     inkscape:window-width="1366"
     inkscape:window-height="715"
     inkscape:window-x="-8"
     inkscape:window-y="-8"
     inkscape:window-maximized="1"
     inkscape:current-layer="svg6" /><defs
     id="defs5" /><path
     style="fill:#4361ee;fill-opacity:1"
     d="m 16.663771,164.77188 c -2.941427,-0.61692 -3.507457,-0.63942 -11.8416769,-0.47064 -2.703064,0.0547 -4.59094296,-0.83225 -4.74043596,-2.22724 l -0.09978,-0.93108 0.528669,0.73536 c 0.427286,0.59434 0.61780596,0.66138 0.99346796,0.34961 0.352055,-0.29218 0.554664,-0.29588 0.835288,-0.0153 0.968448,0.96845 3.675721,0.2608 6.003288,-1.5692 0.616087,-0.48439 1.8836389,-1.27321 2.8167829,-1.75293 1.627485,-0.83669 1.7467,-0.85256 2.925422,-0.38955 1.432995,0.5629 1.755728,0.42656 2.075357,-0.87674 0.129266,-0.52709 0.385107,-1.13917 0.568533,-1.36019 0.471589,-0.56823 1.873839,-0.49891 2.322608,0.11482 0.652156,0.89188 3.485669,-0.74978 7.162548,-4.14977 1.774065,-1.64046 3.843547,-3.39875 4.598849,-3.90731 2.577007,-1.73513 5.211399,-3.81625 9.854477,-7.78484 2.552361,-2.18158 5.807243,-4.87772 7.23307,-5.9914 1.52328,-1.18981 4.271533,-3.94365 6.663913,-6.67746 2.239325,-2.55892 4.339736,-4.79613 4.667578,-4.97159 0.327843,-0.17546 1.002963,-0.31901 1.500268,-0.31901 0.557579,0 1.057427,-0.24537 1.303933,-0.64009 0.219859,-0.35205 0.650559,-0.64216 0.957111,-0.64469 0.777751,-0.006 6.521112,-2.80773 9.110234,-4.44349 2.225293,-1.4059 4.354911,-3.67092 3.783504,-4.02407 -0.176794,-0.10927 -0.602992,-0.048 -0.947108,0.13618 -0.344115,0.18416 -0.743148,0.32908 -0.886738,0.32203 -0.143591,-0.007 0.134981,-0.22768 0.61905,-0.49029 1.359691,-0.73764 1.053232,-1.09501 -0.960136,-1.11962 -3.194288,-0.039 -3.438487,-0.46917 -0.560079,-0.98651 l 2.560362,-0.46018 -0.885453,-0.88551 c -1.074539,-1.07461 -1.901104,-0.93678 -3.230238,0.53862 -0.776336,0.86178 -0.853385,0.89454 -0.507682,0.21585 0.385668,-0.75714 0.375741,-0.77433 -0.184831,-0.32004 -0.536809,0.43502 -0.572695,0.42752 -0.382488,-0.08 0.367386,-0.98029 -0.04063,-0.60822 -1.166772,1.06401 l -1.093723,1.62408 0.169462,-2.11113 c 0.147277,-1.83476 0.103192,-2.08571 -0.336738,-1.91689 -0.27841,0.10683 -0.570658,0.65005 -0.649439,1.20715 -0.07878,0.5571 -0.122998,0.11288 -0.09826,-0.98716 0.04399,-1.95613 0.03283,-1.98426 -0.508136,-1.28018 -0.304215,0.39594 -0.640055,1.22396 -0.746312,1.84005 -0.295285,1.7121 -0.405495,1.86494 -0.461546,0.64009 l -0.05126,-1.12016 -0.425498,0.96013 -0.425497,0.96014 -0.13738,-1.12016 -0.13738,-1.12016 -0.07371,1.12016 c -0.06159,0.93599 -0.118936,1.01492 -0.34877,0.48007 -0.207401,-0.48265 -0.288436,-0.24649 -0.329453,0.96013 -0.05947,1.74957 -0.531169,3.72903 -0.610122,2.56037 -0.02378,-0.35205 -0.249067,-1.00014 -0.500629,-1.44021 l -0.457386,-0.80011 -0.02152,0.96014 c -0.02029,0.90503 -0.04795,0.92521 -0.482061,0.35167 -0.413765,-0.54667 -0.440709,-0.44102 -0.265287,1.04014 0.219489,1.85325 0.0362,2.05828 -0.68702,0.76849 l -0.493512,-0.88012 0.164688,1.28018 0.164688,1.28018 -0.457162,-1.12016 -0.457163,-1.12016 -0.04684,1.12016 c -0.03875,0.92662 -0.09437,1.00957 -0.3219,0.48007 -0.151281,-0.35205 -0.287384,-0.49607 -0.302451,-0.32005 -0.01507,0.17603 -0.167005,0.10402 -0.337639,-0.16002 -0.246099,-0.38081 -0.312109,-0.31464 -0.319263,0.32005 -0.005,0.44006 -0.370006,1.52021 -0.811213,2.40034 -0.441208,0.88012 -0.732588,1.34994 -0.647513,1.04404 0.377394,-1.35698 0.499381,-3.68462 0.239217,-4.56454 -0.27272,-0.92239 -0.293148,-0.89497 -0.519658,0.69765 -0.142355,1.00093 -0.651699,2.31745 -1.285469,3.3226 l -1.049691,1.66481 -0.219068,-1.16774 c -0.120488,-0.64225 -0.131574,-1.3093 -0.02463,-1.48234 0.106939,-0.17303 0.056,-0.3146 -0.113191,-0.3146 -0.169193,0 -0.458242,0.43206 -0.64233,0.96014 -0.39231,1.12538 -0.696277,1.27921 -0.474308,0.24003 0.152198,-0.71253 0.148258,-0.71338 -0.375059,-0.08 -0.393368,0.47609 -0.481102,1.00261 -0.342422,2.055 0.216516,1.64306 0.05267,1.59907 -0.591245,-0.15878 l -0.460138,-1.25613 -0.06468,1.28018 -0.06468,1.28019 -0.202778,-1.12016 -0.202777,-1.12016 -0.795239,1.89834 -0.795239,1.89834 -0.193111,-1.09823 -0.193112,-1.09823 -0.254829,1.07955 -0.25483,1.07954 -0.40619,-0.91952 -0.406189,-0.91952 -0.06386,0.96014 -0.06386,0.96013 -0.213769,-0.96013 -0.213769,-0.96014 -0.388456,1.08791 c -0.21365,0.59834 -0.388455,1.29273 -0.388455,1.54307 0,0.25034 -0.200663,0.65583 -0.445917,0.90109 -0.381192,0.38119 -0.504546,0.29658 -0.84984,-0.58294 -0.222158,-0.56587 -1.60572,-2.19745 -3.074582,-3.62572 -2.27528,-2.21241 -2.674506,-2.75729 -2.696652,-3.68052 l -0.02599,-1.08366 -0.439639,0.96014 -0.439638,0.96013 -0.01934,-1.4402 c -0.01472,-1.09626 -0.09899,-1.32556 -0.352867,-0.96014 -0.491598,0.70758 -0.0069,-5.91484 0.548032,-7.48767 0.244943,-0.69424 1.163213,-2.02129 2.040598,-2.949 0.877386,-0.9277 1.596081,-1.73136 1.5971,-1.7859 0.03063,-1.63852 0.810349,-4.170451 1.640144,-5.325921 l 1.0135,-1.41127 -0.927692,0.58239 -0.927692,0.58239 0.800113,-0.91514 c 0.621776,-0.71116 0.672463,-0.86921 0.227408,-0.70907 -0.481818,0.17337 2.218006,-2.51099 3.901955,-3.8796 0.281212,-0.22855 0.02984,-0.18193 -0.558595,0.10361 -1.329459,0.64512 -1.717405,0.38996 -0.47862,-0.3148 0.616823,-0.35091 0.691744,-0.45935 0.233404,-0.33783 -0.371258,0.0984 -0.928234,0.0818 -1.237725,-0.037 -0.500854,-0.1922 -0.479425,-0.26211 0.194947,-0.63601 0.416711,-0.23104 0.901677,-0.42007 1.077702,-0.42007 0.176025,0 -0.04,0.20582 -0.480068,0.45738 -0.440062,0.25157 -0.656093,0.46029 -0.480068,0.46383 0.440431,0.009 1.278359,-0.54534 1.2885,-0.85221 0.02093,-0.63329 1.315133,-2.10537 2.359911,-2.68427 l 1.152269,-0.63845 -1.440204,0.15927 -1.440204,0.15927 1.120159,-0.43967 c 1.009439,-0.39622 1.041073,-0.44335 0.320045,-0.47684 l -0.800113,-0.0372 0.800113,-0.43568 c 0.440062,-0.23962 2.836944,-2.71821 5.326404,-5.50797 5.617267,-6.29486 11.336696,-11.89895 13.236225,-12.96929 0.792112,-0.44634 2.952418,-1.67463 4.800679,-2.72953 1.848262,-1.0549 4.65666,-2.46217 6.240884,-3.12726 1.584224,-0.66509 4.464632,-1.89289 6.400906,-2.72844 7.314978,-3.15659 15.591192,-5.299556 22.883242,-5.925169 2.12909,-0.182663 5.94212,0.107205 8.53826,0.649082 l 0.90308,0.188493 -0.88013,-0.506902 c -1.36089,-0.7838 -1.04209,-0.853187 0.62896,-0.136892 0.82999,0.355777 2.23419,0.795378 3.12044,0.976898 0.88625,0.18151 2.52666,0.60541 3.64536,0.94199 2.28913,0.68871 2.99764,0.76829 2.28661,0.25682 -0.38819,-0.27925 -0.35757,-0.30481 0.16003,-0.13357 2.89079,0.9564 4.95921,1.1983 11.36161,1.32872 6.36114,0.12959 6.81448,0.10239 6.00085,-0.36014 -1.14502,-0.6509 -1.11633,-0.82298 0.08,-0.47988 1.10108,0.31579 1.19043,0.15019 0.40005,-0.74147 -0.54258,-0.61211 -0.53813,-0.62034 0.1422,-0.26351 0.38625,0.20258 0.79033,0.51081 0.89795,0.68494 0.10762,0.17413 0.48659,0.4723 0.84216,0.66259 0.58333,0.31219 0.61286,0.28315 0.30222,-0.29728 -0.49674,-0.92817 -0.40451,-1.27199 0.14598,-0.54418 0.46514,0.61497 0.46994,0.61497 0.47479,0 0.004,-0.51829 0.0563,-0.54168 0.31514,-0.14118 0.23473,0.36322 0.31921,0.20742 0.34705,-0.64009 0.0202,-0.616086 0.15211,-1.480209 0.29305,-1.920271 0.19622,-0.612697 0.26371,-0.373479 0.28814,1.021259 0.0175,1.001752 0.17592,1.910382 0.35195,2.019172 0.17602,0.10879 0.32004,-0.0987 0.32004,-0.46118 0,-0.8802 0.53868,-0.84044 0.82821,0.0611 0.20189,0.62868 0.30306,0.51695 0.79687,-0.88012 l 0.56563,-1.600228 0.0537,1.120158 0.0537,1.12016 0.32977,-1.12016 c 0.28964,-0.983838 0.36129,-1.042261 0.58873,-0.480068 0.18609,0.459961 0.26529,0.196583 0.28146,-0.935913 l 0.0225,-1.576003 0.7201,0.6348 c 0.85153,0.750658 2.29089,1.402453 3.05549,1.383633 0.32655,-0.008 0.096,-0.259236 -0.57514,-0.626675 l -1.12016,-0.613261 1.12016,-0.03591 c 0.90291,-0.02894 0.99602,-0.08627 0.48007,-0.295593 -0.56289,-0.228363 -0.52429,-0.276104 0.32005,-0.395829 l 0.96013,-0.136145 -0.88012,-0.373869 c -1.39975,-0.594599 -1.02501,-0.690389 0.80011,-0.204518 1.87249,0.49848 3.03837,0.5743 1.92027,0.124879 -1.11709,-0.449014 -0.84996,-0.723806 0.48007,-0.493839 0.86608,0.149749 1.06653,0.116483 0.7201,-0.119503 -0.40231,-0.274052 -0.37639,-0.328606 0.16003,-0.33682 0.54057,-0.0083 0.56545,-0.06282 0.16002,-0.350798 -0.35956,-0.255394 -0.1587,-0.297547 0.80011,-0.167916 0.7041,0.09519 1.92827,0.252323 2.72039,0.349176 l 1.4402,0.176096 -1.12016,-0.458999 c -1.02326,-0.419294 -1.05095,-0.46305 -0.32004,-0.505841 0.44006,-0.02576 1.08815,-0.183114 1.4402,-0.349666 0.47043,-0.222559 0.25836,-0.262757 -0.80011,-0.151659 -1.00029,0.10499 -1.24469,0.06459 -0.80012,-0.132256 0.35205,-0.155881 1.57623,-0.30801 2.72039,-0.338064 2.0147,-0.05292 2.04053,-0.06396 0.81911,-0.350216 -1.6648,-0.390162 -1.9246,-0.711189 -0.4415,-0.545536 0.64774,0.07235 1.10731,0.01762 1.02126,-0.121615 -0.0861,-0.139238 0.10407,-0.263282 0.4225,-0.275654 0.5168,-0.02008 0.51024,-0.05203 -0.0611,-0.297551 -0.47671,-0.204846 -0.23162,-0.282049 0.96013,-0.302451 1.22634,-0.02099 1.48806,-0.107325 1.12016,-0.369486 -0.36362,-0.259115 -0.21831,-0.296787 0.59911,-0.155317 0.94282,0.163174 1.02778,0.124854 0.67245,-0.303295 -0.35712,-0.430303 -0.30079,-0.449794 0.46188,-0.159827 0.47773,0.181632 1.25528,0.328035 1.72789,0.325339 0.69564,-0.004 0.76786,-0.06985 0.37922,-0.345931 -0.36646,-0.260326 -0.25286,-0.296109 0.48006,-0.151204 l 0.96014,0.189828 -0.9246,-0.771506 -0.9246,-0.771505 2.18848,0.129354 c 1.92409,0.113726 2.11531,0.07585 1.58278,-0.313543 -0.56712,-0.414694 -0.53551,-0.458456 0.49637,-0.687246 0.95055,-0.210755 1.01407,-0.27903 0.46198,-0.496602 -0.47559,-0.187427 -0.29539,-0.258034 0.70121,-0.274748 0.73772,-0.01237 1.43032,0.121526 1.53911,0.297551 0.41118,0.665307 0.81196,0.300021 0.43893,-0.400057 -0.34793,-0.652963 -0.33406,-0.679149 0.14876,-0.280857 0.46264,0.381646 0.53246,0.362415 0.53246,-0.146647 0,-0.449519 0.31943,-0.272404 1.37231,0.760925 0.75477,0.74075 1.4814,1.346817 1.61473,1.346817 0.13333,0 0.15646,-0.540076 0.0514,-1.20017 -0.19087,-1.199255 -0.19063,-1.19956 0.31889,-0.400056 l 0.50991,0.800113 -0.18218,-0.800113 c -0.1002,-0.440063 0.28703,0.06401 0.8605,1.120158 1.00922,1.858671 1.04671,1.889472 1.16863,0.960136 l 0.12595,-0.960136 0.41606,1.120159 0.41605,1.120159 0.0243,-1.49404 c 0.0134,-0.821722 0.12083,-1.745475 0.23876,-2.052785 0.11936,-0.311046 0.0839,-0.478079 -0.08,-0.376783 -0.16194,0.10008 -0.29443,-0.15755 -0.29443,-0.572511 v -0.754474 l 0.73702,0.865047 c 0.58485,0.686438 0.66745,0.720709 0.40006,0.165985 -0.46903,-0.973039 -0.42072,-1.209076 0.15043,-0.735061 0.41194,0.341876 0.45995,0.310781 0.31015,-0.200846 -0.11307,-0.38617 -0.0379,-0.339837 0.2075,0.127965 0.21161,0.403323 0.57611,0.659879 0.81001,0.570124 0.24724,-0.09487 0.43735,0.06707 0.45413,0.386845 0.0159,0.302519 0.16677,0.07132 0.33532,-0.513767 0.19299,-0.669913 0.66798,-1.262422 1.28284,-1.600227 1.71941,-0.94465 2.44115,-1.62848 2.79742,-2.650491 0.32164,-0.922656 0.30598,-0.965376 -0.20805,-0.567521 -0.48192,0.372998 -0.47814,0.338902 0.0284,-0.256275 0.32136,-0.377584 0.61345,-0.879173 0.64909,-1.114644 0.0357,-0.23547 0.18018,-0.612844 0.32118,-0.838608 0.141,-0.225765 0.38406,-0.85571 0.54012,-1.399878 0.28359,-0.988809 0.28335,-0.989041 -0.39492,-0.389632 l -0.67867,0.599764 0.56642,-0.880125 c 0.31153,-0.484068 0.47278,-0.880124 0.35833,-0.880124 -0.11446,0 -0.0354,-0.324046 0.17561,-0.720102 0.34767,-0.65249 0.3338,-0.678942 -0.14772,-0.281725 -0.45927,0.378855 -0.44809,0.248492 0.0823,-0.960136 1.2439,-2.834368 1.20287,-3.487945 -0.42147,-6.713429 -1.37891,-2.73814 -1.95644,-5.102112 -1.12022,-4.585298 0.24239,0.149803 0.28249,-0.02118 0.12692,-0.541191 -0.22294,-0.745226 -0.21722,-0.747589 0.29067,-0.120091 0.49923,0.61681 0.51015,0.605169 0.30006,-0.320045 -0.20511,-0.903266 -0.18289,-0.931701 0.37506,-0.480068 0.54572,0.441737 0.57269,0.42896 0.33777,-0.160023 -0.14041,-0.35205 -0.32233,-1.288182 -0.40425,-2.080294 -0.11099,-1.073085 -0.0624,-1.317831 0.19048,-0.960136 0.26731,0.378065 0.34584,0.242062 0.3696,-0.640091 0.0166,-0.616087 0.10281,-0.940133 0.19159,-0.720102 0.29566,0.732715 0.64281,0.413883 1.04541,-0.9601364 0.21921,-0.748106 0.76617,-2.189265 1.21548,-3.202577 0.60247,-1.358733 0.91856,-1.75803 1.2041,-1.521053 0.2831,0.234953 0.54469,-0.02797 0.97313,-0.978075 1.25908,-2.792133 3.38089,-3.488122 7.07957,-2.322216 1.9596,0.617708 2.33644,0.454623 1.58821,-0.687326 C 210.51531,0.3645466 210.42257,5.9985339e-7 210.60116,5.9985339e-7 c 0.17859,0 0.50596,0.29622100014661 0.72748,0.65826800014661 0.22152,0.362047 0.90684,0.969543 1.52293,1.34999 1.61289,0.995996 4.12449,3.398579 5.00502,4.787769 0.48204,0.760503 1.3684,1.501419 2.43693,2.037047 0.92363,0.462998 2.32743,1.5093674 3.11954,2.3252654 0.79211,0.815898 1.72825,1.646585 2.0803,1.845972 1.04231,0.590323 0.39917,0.766528 -1.1351,0.310988 -0.7839,-0.232748 -2.00135,-0.515348 -2.70545,-0.628002 -1.11549,-0.178475 -0.91993,-0.01915 1.52022,1.238479 1.54021,0.793817 2.80039,1.49589 2.80039,1.560163 0,0.06427 -2.85229,0.04262 -6.33842,-0.04812 -5.54529,-0.144333 -6.48301,-0.09637 -7.49387,0.383316 -2.10795,1.000288 -3.74022,4.275842 -4.47004,8.970264 -0.36687,2.359814 -0.13499,5.820277 0.71747,10.706996 0.49884,2.859605 0.34606,5.457659 -0.50972,8.667857 -1.54928,5.811663 -2.91003,8.666079 -6.23459,13.078096 -2.70095,3.58443 -8.60553,9.13304 -12.42443,11.67538 -1.78613,1.18908 -4.13674,2.93748 -5.22357,3.88534 -1.08683,0.94785 -3.54288,2.63298 -5.45788,3.74471 -8.37409,4.8615 -10.14004,6.33221 -12.58501,10.48103 -0.87376,1.48267 -2.36256,3.49825 -3.30844,4.47908 -0.94588,0.98083 -1.5292,1.49528 -1.29627,1.14323 0.23293,-0.35205 -0.21734,-0.0535 -1.00061,0.6634 -2.39069,2.18819 -7.58784,6.53762 -7.81182,6.53762 -0.11605,0 -0.10726,-0.18002 0.0195,-0.40006 0.12679,-0.22003 -0.12743,-0.0747 -0.56493,0.32298 -0.4375,0.397661 -0.88716,0.631321 -0.99925,0.519241 -0.11208,-0.11209 -1.61361,0.58727 -3.33673,1.55412 -3.35781,1.8841 -6.06112,3.02334 -6.39109,2.69336 -0.1119,-0.1119 -0.38425,-0.0534 -0.60521,0.12998 -0.22097,0.18339 -0.80583,0.4067 -1.29969,0.49626 -0.49386,0.0896 -1.11843,0.33183 -1.38794,0.5384 -0.2695,0.20657 -0.20197,0.035 0.15008,-0.38137 l 0.64009,-0.75694 -1.40443,0.71152 c -0.91555,0.46384 -2.37631,0.80269 -4.19636,0.97342 -5.65326,0.5303 -7.48773,2.51236 -10.21936,11.04156 -0.56376,1.76025 -1.46035,4.54343 -1.99243,6.18485 -1.0663,3.28941 -1.03272,4.04941 0.25355,5.73979 1.67893,2.2064 4.42844,2.77568 9.65662,1.99939 1.17788,-0.17489 5.27555,-0.60443 9.10593,-0.95453 3.83038,-0.3501 9.08712,-0.99246 11.68165,-1.42747 11.52782,-1.93281 15.35192,-2.14425 18.51933,-1.024 1.75693,0.6214 6.18051,3.84162 8.76358,6.37959 1.14547,1.12548 3.25305,2.72636 4.68351,3.55751 1.43046,0.83115 2.90405,1.79368 3.27466,2.13895 0.77232,0.71954 1.76665,2.51032 1.52693,2.75003 -0.0886,0.0886 -1.19304,-0.0737 -2.45435,-0.36054 -2.21598,-0.50401 -4.88101,-1.68342 -6.87312,-3.04169 -0.52807,-0.36006 -1.14016,-0.6556 -1.36019,-0.65676 -0.6262,-0.003 -0.4695,1.00288 0.28053,1.80124 0.91584,0.97487 0.60874,1.92168 -0.4358,1.3436 -0.39867,-0.22063 -1.40817,-0.41913 -2.24333,-0.44111 -1.27263,-0.0335 -2.04985,-0.36993 -4.80068,-2.07806 -1.80521,-1.12096 -4.63503,-2.74679 -6.28848,-3.61298 -3.44475,-1.80458 -1.57227,-1.73519 -14.75624,-0.54687 -4.13658,0.37285 -8.88926,0.88021 -10.56149,1.12748 -1.67224,0.24726 -5.39117,0.60997 -8.2643,0.806 -3.20347,0.21858 -6.17422,0.6121 -7.68108,1.01747 -5.01436,1.34897 -5.21514,1.36965 -7.2085,0.74267 -2.68773,-0.8454 -3.2149,-1.64596 -2.95151,-4.48216 0.11443,-1.23217 0.41865,-5.12072 0.67604,-8.64122 0.25739,-3.5205 0.60808,-6.97699 0.77931,-7.68109 0.79178,-3.25584 -0.0283,-6.31144 -2.04937,-7.63568 -1.14678,-0.7514 -1.41682,-0.68833 -3.92602,0.91704 -2.34835,1.50246 -10.265414,5.04067 -14.338004,6.40779 -1.29586,0.435 -2.9908,0.79092 -3.76652,0.79092 -2.91813,0 -5.11217,0.74367 -11.395383,3.86249 -8.321348,4.13049 -11.316129,5.97884 -13.645114,8.42164 -1.961308,2.05715 -2.74983,2.47981 -6.600461,3.53795 -2.276067,0.62546 -4.487356,2.21445 -15.839252,11.38177 -6.040288,4.87789 -10.828393,9.07223 -14.841713,13.00122 -4.928175,4.82462 -7.480536,6.98017 -8.069105,6.81462 -0.05275,-0.0148 -1.464098,-0.31394 -3.136335,-0.66468 z M 179.16012,42.052722 c -0.10635,-0.106348 -0.38239,-0.117718 -0.61342,-0.02527 -0.25531,0.102166 -0.17948,0.178003 0.19336,0.19336 0.33738,0.0139 0.52641,-0.06174 0.42006,-0.168094 z M 73.951883,114.1127 c 0,-0.088 0.432061,-0.38345 0.960136,-0.65653 0.528075,-0.27308 0.960136,-0.4245 0.960136,-0.33649 0,0.088 -0.432061,0.38345 -0.960136,0.65653 -0.528075,0.27308 -0.960136,0.4245 -0.960136,0.33649 z M 166.70502,45.547954 c 0.23103,-0.09245 0.50707,-0.08108 0.61342,0.02527 0.10635,0.106348 -0.0827,0.181991 -0.42006,0.168094 -0.37283,-0.01536 -0.44867,-0.09119 -0.19336,-0.193361 z"
     id="path1" /></svg>
